<?xml version="1.0" standalone="no"?>
<!DOCTYPE svg PUBLIC "-//W3C//DTD SVG 20010904//EN"
 "http://www.w3.org/TR/2001/REC-SVG-20010904/DTD/svg10.dtd">
<svg version="1.0" xmlns="http://www.w3.org/2000/svg"
 width="518.000000pt" height="518.000000pt" viewBox="0 0 518.000000 518.000000"
 preserveAspectRatio="xMidYMid meet">
<metadata>
Created by potrace 1.11, written by Peter Selinger 2001-2013
</metadata>
<g transform="translate(0.000000,518.000000) scale(0.100000,-0.100000)"
fill="#000000" stroke="none">
<path d="M2426 5082 c-3 -5 -20 -8 -38 -6 -18 2 -35 -1 -40 -8 -6 -10 -8 -10
-8 -1 0 7 -6 10 -14 7 -8 -3 -39 -7 -68 -9 -29 -2 -53 -4 -53 -5 0 -2 -30 -7
-85 -14 -25 -3 -56 -8 -70 -11 -14 -4 -36 -8 -50 -10 -14 -2 -40 -8 -59 -14
-19 -6 -37 -9 -39 -6 -3 3 -11 0 -19 -6 -7 -6 -13 -8 -13 -4 0 4 -7 2 -15 -5
-8 -7 -15 -10 -15 -6 0 3 -12 1 -27 -5 -16 -6 -39 -13 -52 -15 -14 -3 -29 -8
-35 -12 -6 -3 -15 -7 -21 -8 -5 -1 -21 -6 -35 -12 -14 -5 -29 -11 -35 -12 -5
-2 -26 -11 -45 -21 -19 -11 -40 -19 -47 -19 -7 0 -13 -5 -13 -11 0 -5 -4 -8
-9 -4 -5 3 -12 1 -16 -5 -4 -6 -11 -8 -16 -5 -5 4 -9 2 -9 -3 0 -9 -21 -18
-59 -27 -8 -2 -17 -8 -20 -13 -7 -10 -43 -26 -53 -24 -5 1 -8 -3 -8 -8 0 -6
-6 -10 -14 -10 -8 0 -21 -6 -28 -13 -7 -8 -30 -22 -50 -31 -21 -10 -49 -29
-63 -42 -14 -13 -26 -23 -28 -23 -8 1 -43 -17 -57 -30 -9 -9 -28 -25 -44 -36
-15 -11 -36 -27 -46 -35 -10 -8 -30 -24 -44 -34 -15 -11 -38 -30 -52 -43 -14
-12 -30 -23 -35 -23 -6 0 -7 -4 -4 -10 3 -5 2 -10 -4 -10 -5 0 -58 -49 -118
-108 -107 -107 -136 -138 -203 -221 -19 -24 -42 -51 -50 -60 -8 -9 -30 -40
-49 -69 -18 -28 -38 -52 -44 -52 -6 0 -7 -3 -4 -7 4 -3 -4 -21 -18 -39 -14
-18 -25 -40 -25 -49 0 -9 -4 -14 -9 -11 -9 6 -36 -50 -32 -66 0 -5 -3 -8 -8
-8 -10 0 -77 -130 -73 -142 1 -5 -2 -8 -8 -8 -5 0 -10 -9 -10 -20 0 -11 -5
-20 -12 -20 -6 0 -9 -3 -6 -6 4 -3 0 -17 -7 -31 -8 -15 -12 -30 -9 -35 3 -4 0
-8 -5 -8 -6 0 -11 -6 -11 -14 0 -8 -5 -27 -11 -43 -6 -15 -10 -29 -10 -31 1
-1 -6 -18 -14 -38 -8 -20 -12 -41 -8 -47 3 -5 2 -7 -3 -4 -9 5 -49 -141 -47
-175 0 -10 -3 -18 -7 -18 -4 0 -7 -6 -7 -12 0 -7 -4 -33 -8 -58 -4 -25 -8 -54
-9 -65 -1 -11 -5 -26 -9 -32 -5 -8 -3 -13 5 -13 10 0 10 -2 1 -8 -7 -5 -13
-37 -15 -79 -1 -39 -5 -70 -8 -68 -3 2 -5 -8 -5 -21 0 -13 4 -24 8 -24 5 0 5
-6 0 -12 -9 -15 -11 -338 -2 -332 3 2 6 -11 6 -29 0 -70 7 -122 17 -129 8 -6
7 -11 -3 -17 -9 -6 -10 -11 -2 -15 6 -4 10 -17 10 -29 -1 -12 2 -33 5 -47 8
-34 15 -69 21 -105 2 -16 10 -46 15 -65 6 -19 14 -48 17 -65 3 -16 9 -33 15
-36 5 -3 9 -10 8 -15 -3 -14 23 -105 32 -110 4 -3 8 -11 8 -18 0 -8 8 -31 17
-52 9 -22 17 -41 18 -44 0 -3 20 -44 43 -93 23 -48 42 -92 42 -97 0 -6 4 -10
9 -10 5 0 20 -23 32 -50 12 -28 26 -50 30 -50 3 0 12 -13 19 -30 7 -16 17 -30
23 -30 6 0 8 -3 4 -6 -3 -3 -2 -11 3 -18 6 -6 38 -49 73 -96 72 -97 93 -123
162 -199 135 -148 394 -379 408 -364 4 3 7 2 7 -4 0 -11 92 -79 103 -75 4 1 7
-2 7 -7 0 -5 13 -14 30 -21 16 -7 27 -16 24 -21 -3 -5 4 -9 15 -9 12 0 21 -4
21 -10 0 -5 7 -10 15 -10 8 0 15 -5 15 -12 0 -6 3 -8 6 -5 4 4 19 -2 33 -12
31 -21 200 -104 220 -107 7 -2 18 -7 24 -13 6 -6 17 -11 23 -11 7 0 25 -5 41
-12 15 -6 30 -12 33 -13 3 -1 13 -5 22 -9 9 -4 22 -9 30 -10 7 -2 24 -7 38
-13 14 -5 59 -18 100 -29 41 -10 77 -21 80 -24 3 -3 14 -6 25 -7 24 0 72 -11
103 -23 14 -6 22 -6 22 1 0 6 6 7 13 2 14 -9 31 -12 74 -16 18 -1 33 -4 33 -7
0 -3 23 -5 50 -5 28 0 50 -2 50 -5 0 -3 9 -6 20 -7 11 -1 18 2 16 6 -3 4 1 8
9 8 8 0 12 -4 9 -9 -3 -4 101 -8 231 -8 186 0 235 3 229 13 -6 9 -5 9 8 0 8
-7 18 -10 22 -6 4 4 33 9 64 10 31 1 57 2 57 3 0 4 42 11 68 12 15 1 27 4 27
8 0 3 12 7 28 8 15 1 38 5 52 8 14 3 35 6 48 7 12 1 22 5 22 11 0 5 2 7 6 4 3
-3 25 0 50 8 24 7 44 10 44 6 0 -4 4 -1 8 5 5 7 20 14 35 15 15 1 27 6 27 10
0 4 10 8 23 8 12 0 35 7 51 15 15 8 35 15 42 15 8 0 14 5 14 11 0 5 5 7 10 4
6 -4 18 -1 27 7 9 7 19 12 22 11 12 -4 51 9 51 18 0 5 9 9 19 9 11 0 23 5 26
10 4 6 11 8 16 5 5 -4 9 -2 9 3 0 9 27 20 40 18 3 -1 19 8 35 20 17 11 52 31
78 45 26 13 57 32 67 42 11 9 22 17 26 16 3 -1 27 13 52 32 26 18 51 32 55 31
4 -1 10 5 13 13 4 8 10 15 15 15 9 0 60 39 174 134 52 43 290 276 281 276 -2
0 10 15 27 34 49 51 82 96 80 107 -2 5 3 9 10 9 12 1 157 211 157 230 0 5 5
10 10 10 6 0 10 6 10 14 0 8 7 22 16 30 8 9 12 16 8 16 -4 0 0 8 9 18 8 9 16
19 16 22 0 3 20 48 44 100 47 101 72 161 72 172 0 3 3 10 8 14 4 4 7 16 7 26
0 10 4 18 10 18 5 0 9 3 8 8 -4 12 24 106 36 121 9 12 8 13 -4 6 -12 -7 -13
-6 -3 7 7 8 14 27 15 42 1 14 5 26 9 26 4 0 6 11 4 25 -1 14 2 25 6 25 5 0 8
3 8 8 -1 4 -1 9 0 12 2 5 7 43 15 110 3 19 5 35 6 35 3 0 11 53 13 95 2 25 6
51 11 58 4 7 2 12 -4 12 -7 0 -8 6 -2 18 10 18 12 412 3 412 -4 0 -7 30 -8 66
-1 36 -7 71 -13 79 -8 9 -8 15 0 20 6 4 7 12 2 18 -4 7 -7 22 -6 35 0 12 -2
22 -6 22 -5 0 -7 8 -6 18 2 9 -2 35 -9 57 -14 47 -13 45 -21 95 -4 22 -9 38
-13 36 -3 -2 -7 12 -8 31 -1 19 -6 40 -12 47 -6 7 -8 16 -4 19 3 4 0 13 -7 22
-7 8 -9 15 -4 15 4 0 3 5 -4 12 -7 7 -12 20 -12 30 0 10 -4 18 -8 18 -5 0 -9
7 -10 15 -1 8 -3 22 -4 30 -1 8 -5 15 -10 15 -4 0 -8 7 -8 15 0 8 -4 23 -9 33
-5 9 -37 74 -72 145 -34 70 -67 127 -71 127 -5 0 -7 4 -4 9 3 5 -1 14 -9 21
-8 7 -15 19 -15 26 0 8 -3 14 -8 14 -4 0 -16 17 -27 37 -11 20 -30 47 -43 60
-13 13 -20 23 -17 23 5 0 -91 125 -120 156 -37 40 -53 63 -47 69 4 4 2 5 -3 3
-10 -3 -66 48 -60 54 2 2 -3 9 -11 16 -8 7 -14 11 -14 8 0 -3 -11 6 -25 20
-14 14 -25 29 -25 34 0 6 -3 10 -7 10 -5 0 -32 23 -61 50 -30 28 -56 50 -58
50 -2 0 -19 14 -37 31 -17 17 -49 43 -69 57 -21 13 -38 29 -38 33 0 5 -6 9
-13 9 -7 0 -24 11 -39 25 -15 14 -29 25 -32 25 -3 0 -44 25 -92 56 -47 30 -93
58 -102 61 -10 4 -19 9 -22 12 -9 11 -95 51 -107 51 -7 0 -13 4 -13 8 0 5 -29
19 -65 31 -36 13 -65 27 -65 32 0 5 -8 9 -18 9 -10 0 -27 7 -38 15 -12 8 -24
12 -27 8 -4 -3 -12 -2 -19 4 -16 11 -93 36 -113 36 -8 0 -15 3 -15 7 0 5 -22
10 -62 13 -10 1 -18 5 -18 10 0 5 -6 7 -14 4 -8 -3 -17 -3 -20 1 -4 3 -15 7
-26 9 -38 6 -65 11 -65 13 0 1 -9 3 -20 5 -11 1 -36 6 -55 10 -19 3 -57 8 -85
10 -27 2 -50 5 -50 5 0 4 -45 9 -88 11 -26 2 -50 6 -53 11 -3 4 -13 4 -23 -1
-9 -5 -23 -6 -29 -2 -7 4 -33 5 -57 1 -25 -4 -45 -4 -45 -1 0 5 -72 6 -95 1
-5 -1 -14 -1 -20 0 -33 7 -56 6 -61 -2 -4 -6 -9 -5 -14 2 -5 7 -10 8 -14 2z
m-1276 -1242 c0 -5 -4 -10 -10 -10 -5 0 -10 5 -10 10 0 6 5 10 10 10 6 0 10
-4 10 -10z m66 -15 c9 -8 11 -15 6 -15 -5 0 -15 7 -22 15 -7 8 -9 15 -6 15 4
0 14 -7 22 -15z m34 -29 c0 -3 -4 -8 -10 -11 -5 -3 -10 -1 -10 4 0 6 5 11 10
11 6 0 10 -2 10 -4z m20 -30 c0 -3 -4 -8 -10 -11 -5 -3 -10 -1 -10 4 0 6 5 11
10 11 6 0 10 -2 10 -4z m10 -36 c0 -5 -5 -10 -11 -10 -5 0 -7 5 -4 10 3 6 8
10 11 10 2 0 4 -4 4 -10z m50 -110 c0 -5 -4 -10 -10 -10 -5 0 -10 5 -10 10 0
6 5 10 10 10 6 0 10 -4 10 -10z m-285 -10 c3 -6 -4 -10 -17 -10 -18 0 -20 2
-8 10 19 12 18 12 25 0z m59 -75 c3 -8 1 -15 -4 -15 -6 0 -10 7 -10 15 0 8 2
15 4 15 2 0 6 -7 10 -15z m276 -19 c0 -3 -4 -8 -10 -11 -5 -3 -10 -1 -10 4 0
6 5 11 10 11 6 0 10 -2 10 -4z m-237 -60 c4 -10 1 -13 -9 -9 -7 3 -14 9 -14
14 0 14 17 10 23 -5z m277 -56 c0 -5 -2 -10 -4 -10 -3 0 -8 5 -11 10 -3 6 -1
10 4 10 6 0 11 -4 11 -10z m965 -21 c6 -1 -8 -5 -30 -8 -22 -4 -49 -4 -60 -2
-39 10 49 20 90 10z m-950 -9 c3 -5 2 -10 -4 -10 -5 0 -13 5 -16 10 -3 6 -2
10 4 10 5 0 13 -4 16 -10z m1010 -10 c3 -5 1 -10 -4 -10 -6 0 -11 5 -11 10 0
6 2 10 4 10 3 0 8 -4 11 -10z m-698 -15 c0 -8 -4 -15 -9 -15 -4 0 -8 7 -8 15
0 8 4 15 8 15 5 0 9 -7 9 -15z m737 -11 c3 -8 2 -12 -4 -9 -6 3 -10 10 -10 16
0 14 7 11 14 -7z m-1027 -46 c-3 -8 -6 -5 -6 6 -1 11 2 17 5 13 3 -3 4 -12 1
-19z m308 12 c3 -5 1 -10 -4 -10 -6 0 -11 5 -11 10 0 6 2 10 4 10 3 0 8 -4 11
-10z m-545 -14 c0 -3 -4 -8 -10 -11 -5 -3 -10 -1 -10 4 0 6 5 11 10 11 6 0 10
-2 10 -4z m1335 -15 c3 -5 0 -13 -6 -17 -7 -4 -9 -3 -5 4 3 5 0 13 -6 15 -9 4
-10 6 -1 6 6 1 14 -3 18 -8z m-1075 -11 c0 -5 -2 -10 -4 -10 -3 0 -8 5 -11 10
-3 6 -1 10 4 10 6 0 11 -4 11 -10z m313 -30 c3 -11 1 -20 -4 -20 -5 0 -9 9 -9
20 0 11 2 20 4 20 2 0 6 -9 9 -20z m-547 -26 c-4 -9 -9 -15 -11 -12 -3 3 -3
13 1 22 4 9 9 15 11 12 3 -3 3 -13 -1 -22z m1377 -60 c6 -32 2 -30 -16 5 -11
22 -12 28 -2 25 7 -3 15 -16 18 -30z m-1093 6 c0 -5 -4 -10 -10 -10 -5 0 -10
5 -10 10 0 6 5 10 10 10 6 0 10 -4 10 -10z m300 -4 c0 -3 -4 -8 -10 -11 -5 -3
-10 -1 -10 4 0 6 5 11 10 11 6 0 10 -2 10 -4z m-536 -52 c3 -8 2 -12 -4 -9 -6
3 -10 10 -10 16 0 14 7 11 14 -7z m561 -24 c3 -5 1 -10 -4 -10 -6 0 -11 5 -11
10 0 6 2 10 4 10 3 0 8 -4 11 -10z m-545 -10 c0 -5 -2 -10 -4 -10 -3 0 -8 5
-11 10 -3 6 -1 10 4 10 6 0 11 -4 11 -10z m270 -20 c0 -5 -2 -10 -4 -10 -3 0
-8 5 -11 10 -3 6 -1 10 4 10 6 0 11 -4 11 -10z m290 0 c0 -5 -5 -10 -11 -10
-5 0 -7 5 -4 10 3 6 8 10 11 10 2 0 4 -4 4 -10z m-280 -36 c0 -8 -5 -12 -10
-9 -6 4 -8 11 -5 16 9 14 15 11 15 -7z m-243 -42 c2 -23 1 -24 -7 -7 -11 24
-13 51 -3 41 4 -4 8 -19 10 -34z m543 22 c0 -8 -4 -12 -10 -9 -5 3 -10 10 -10
16 0 5 5 9 10 9 6 0 10 -7 10 -16z m885 -33 c-6 -5 -25 10 -25 20 0 5 6 4 14
-3 8 -7 12 -15 11 -17z m-855 -41 c0 -5 -5 -10 -11 -10 -5 0 -7 5 -4 10 3 6 8
10 11 10 2 0 4 -4 4 -10z m-280 -10 c0 -5 -4 -10 -10 -10 -5 0 -10 5 -10 10 0
6 5 10 10 10 6 0 10 -4 10 -10z m1224 -29 c-4 -3 -9 0 -11 7 -3 6 -10 9 -15 6
-7 -4 -8 -2 -4 5 6 9 11 9 22 0 8 -6 12 -15 8 -18z m-1459 -30 c-3 -5 -1 -12
5 -16 5 -3 10 -11 10 -18 0 -6 -7 -2 -15 9 -17 23 -19 34 -4 34 5 0 8 -4 4 -9z
m1519 -7 c5 -14 4 -15 -9 -4 -17 14 -19 20 -6 20 5 0 12 -7 15 -16z m-974 -4
c0 -5 -4 -10 -10 -10 -5 0 -10 5 -10 10 0 6 5 10 10 10 6 0 10 -4 10 -10z
m2095 0 c-3 -5 -12 -10 -18 -10 -7 0 -6 4 3 10 19 12 23 12 15 0z m-2360 -29
c3 -5 1 -12 -5 -16 -5 -3 -10 1 -10 9 0 18 6 21 15 7z m285 5 c0 -3 -4 -8 -10
-11 -5 -3 -10 -1 -10 4 0 6 5 11 10 11 6 0 10 -2 10 -4z m1060 -26 c0 -5 -4
-10 -10 -10 -5 0 -10 5 -10 10 0 6 5 10 10 10 6 0 10 -4 10 -10z m1051 -3 c-6
-8 -8 -17 -4 -20 3 -4 1 -7 -5 -7 -14 0 -14 2 -6 24 3 9 11 16 16 16 7 0 6 -5
-1 -13z m-2101 -22 c0 -8 -4 -15 -10 -15 -5 0 -7 7 -4 15 4 8 8 15 10 15 2 0
4 -7 4 -15z m1910 -5 c0 -5 -4 -10 -10 -10 -5 0 -10 5 -10 10 0 6 5 10 10 10
6 0 10 -4 10 -10z m-2440 -16 c0 -8 -5 -12 -10 -9 -6 4 -8 11 -5 16 9 14 15
11 15 -7z m1690 -2 c0 -5 -7 -9 -15 -9 -8 0 -15 4 -15 9 0 4 7 8 15 8 8 0 15
-4 15 -8z m40 -12 c0 -5 -5 -10 -11 -10 -5 0 -7 5 -4 10 3 6 8 10 11 10 2 0 4
-4 4 -10z m635 0 c-3 -5 -12 -10 -18 -10 -7 0 -6 4 3 10 19 12 23 12 15 0z
m232 -22 c-3 -8 -6 -5 -6 6 -1 11 2 17 5 13 3 -3 4 -12 1 -19z m-2577 2 c0 -5
-2 -10 -4 -10 -3 0 -8 5 -11 10 -3 6 -1 10 4 10 6 0 11 -4 11 -10z m2286 3
c-10 -11 -37 -12 -30 -2 3 5 12 9 21 9 9 0 13 -3 9 -7z m-2035 -26 c-10 -9
-11 -8 -5 6 3 10 9 15 12 12 3 -3 0 -11 -7 -18z m1583 11 c-3 -4 -12 -8 -20
-8 -8 0 -14 4 -14 8 0 4 9 8 19 8 11 0 17 -4 15 -8z m387 -6 c-7 -2 -18 1 -23
6 -8 8 -4 9 13 5 13 -4 18 -8 10 -11z m-1676 -12 c3 -5 1 -10 -4 -10 -6 0 -11
5 -11 10 0 6 2 10 4 10 3 0 8 -4 11 -10z m1555 0 c0 -4 -45 -6 -99 -6 -55 1
-97 4 -95 8 5 8 194 6 194 -2z m-1820 -35 c0 -5 -5 -3 -10 5 -5 8 -10 20 -10
25 0 6 5 3 10 -5 5 -8 10 -19 10 -25z m-253 8 c-4 -3 -2 -12 4 -20 7 -8 8 -13
1 -13 -12 0 -23 26 -15 34 4 3 9 6 11 6 3 0 2 -3 -1 -7z m2533 -7 c0 -2 -7 -9
-15 -16 -13 -11 -14 -10 -9 4 5 14 24 23 24 12z m-1985 -35 c3 -5 1 -12 -5
-16 -5 -3 -10 1 -10 9 0 18 6 21 15 7z m-265 -21 c0 -5 -5 -10 -11 -10 -5 0
-7 5 -4 10 3 6 8 10 11 10 2 0 4 -4 4 -10z m271 -23 c-10 -9 -11 -8 -5 6 3 10
9 15 12 12 3 -3 0 -11 -7 -18z m1939 -13 c0 -8 -5 -12 -10 -9 -6 4 -8 11 -5
16 9 14 15 11 15 -7z m-2190 2 c0 -3 -4 -8 -10 -11 -5 -3 -10 -1 -10 4 0 6 5
11 10 11 6 0 10 -2 10 -4z m274 -32 c3 -8 2 -12 -4 -9 -6 3 -10 10 -10 16 0
14 7 11 14 -7z m1906 -8 c0 -3 -4 -8 -10 -11 -5 -3 -10 -1 -10 4 0 6 5 11 10
11 6 0 10 -2 10 -4z m-2420 -20 c0 -3 -4 -8 -10 -11 -5 -3 -10 -1 -10 4 0 6 5
11 10 11 6 0 10 -2 10 -4z m2405 -16 c3 -5 1 -10 -4 -10 -6 0 -11 5 -11 10 0
6 2 10 4 10 3 0 8 -4 11 -10z m-2388 -15 c0 -8 -4 -12 -9 -9 -5 3 -6 10 -3 15
9 13 12 11 12 -6z m533 -15 c0 -5 -4 -10 -10 -10 -5 0 -10 5 -10 10 0 6 5 10
10 10 6 0 10 -4 10 -10z m-270 -10 c0 -5 -2 -10 -4 -10 -3 0 -8 5 -11 10 -3 6
-1 10 4 10 6 0 11 -4 11 -10z m2105 1 c3 -5 1 -12 -5 -16 -5 -3 -10 1 -10 9 0
18 6 21 15 7z m-2335 -51 c0 -5 -4 -10 -10 -10 -5 0 -10 5 -10 10 0 6 5 10 10
10 6 0 10 -4 10 -10z m527 -11 c2 -16 -1 -19 -9 -11 -5 5 -7 15 -4 21 10 15
12 14 13 -10z m-520 -31 c-3 -8 -6 -5 -6 6 -1 11 2 17 5 13 3 -3 4 -12 1 -19z
m253 12 c0 -5 -2 -10 -4 -10 -3 0 -8 5 -11 10 -3 6 -1 10 4 10 6 0 11 -4 11
-10z m2045 1 c3 -5 1 -12 -5 -16 -5 -3 -10 1 -10 9 0 18 6 21 15 7z m-2025
-25 c0 -3 -4 -8 -10 -11 -5 -3 -10 -1 -10 4 0 6 5 11 10 11 6 0 10 -2 10 -4z
m14 -31 c3 -8 1 -15 -4 -15 -6 0 -10 7 -10 15 0 8 2 15 4 15 2 0 6 -7 10 -15z
m266 -5 c0 -5 -5 -10 -11 -10 -5 0 -7 5 -4 10 3 6 8 10 11 10 2 0 4 -4 4 -10z
m-517 -15 c-3 -9 -8 -14 -10 -11 -3 3 -2 9 2 15 9 16 15 13 8 -4z m2232 -5 c3
-5 1 -10 -4 -10 -6 0 -11 5 -11 10 0 6 2 10 4 10 3 0 8 -4 11 -10z m-2215 -36
c0 -8 -5 -12 -10 -9 -6 4 -8 11 -5 16 9 14 15 11 15 -7z m520 6 c0 -5 -2 -10
-4 -10 -3 0 -8 5 -11 10 -3 6 -1 10 4 10 6 0 11 -4 11 -10z m-260 -15 c7 -9 8
-15 2 -15 -5 0 -12 7 -16 15 -3 8 -4 15 -2 15 2 0 9 -7 16 -15z m320 -19 c0
-2 -9 -6 -20 -9 -11 -3 -18 -1 -14 4 5 9 34 13 34 5z m-550 -47 c0 -5 -4 -9
-8 -9 -5 0 -9 7 -9 15 0 8 4 12 9 9 4 -3 8 -9 8 -15z m11 -32 c-10 -9 -11 -8
-5 6 3 10 9 15 12 12 3 -3 0 -11 -7 -18z m266 -29 c-3 -8 -6 -5 -6 6 -1 11 2
17 5 13 3 -3 4 -12 1 -19z m-247 2 c0 -5 -5 -10 -11 -10 -5 0 -7 5 -4 10 3 6
8 10 11 10 2 0 4 -4 4 -10z m40 -105 c14 -19 14 -19 -2 -6 -10 7 -18 18 -18
24 0 6 1 8 3 6 1 -2 9 -13 17 -24z m275 -14 l20 -25 -26 20 c-15 10 -25 23
-22 27 3 5 6 7 7 5 0 -2 10 -14 21 -27z m65 -25 c0 -9 -30 -14 -35 -6 -4 6 3
10 14 10 12 0 21 -2 21 -4z m1727 -41 c0 -8 -4 -12 -9 -9 -4 3 -8 9 -8 15 0 5
4 9 8 9 5 0 9 -7 9 -15z m-2027 -5 c0 -5 -5 -10 -11 -10 -5 0 -7 5 -4 10 3 6
8 10 11 10 2 0 4 -4 4 -10z m2025 -50 c1 -10 -2 -17 -6 -14 -4 2 -7 13 -6 24
2 23 10 17 12 -10z m-2 -55 c-7 -21 -12 -19 -10 4 0 11 5 18 9 15 4 -3 5 -11
1 -19z m-1979 0 c3 -8 1 -15 -4 -15 -6 0 -10 7 -10 15 0 8 2 15 4 15 2 0 6 -7
10 -15z m1986 -29 c0 -3 -4 -8 -10 -11 -5 -3 -10 -1 -10 4 0 6 5 11 10 11 6 0
10 -2 10 -4z m-1950 -26 c0 -5 -5 -10 -11 -10 -5 0 -7 5 -4 10 3 6 8 10 11 10
2 0 4 -4 4 -10z m1937 -16 c-3 -3 -12 -4 -19 -1 -8 3 -5 6 6 6 11 1 17 -2 13
-5z m-1817 -16 c0 -5 -13 -8 -30 -8 -16 0 -30 4 -30 9 0 4 13 8 30 7 16 -1 30
-4 30 -8z m40 0 c0 -4 -7 -8 -15 -8 -8 0 -15 4 -15 8 0 5 7 9 15 9 8 0 15 -4
15 -9z m40 0 c0 -4 -7 -8 -15 -8 -8 0 -15 4 -15 8 0 5 7 9 15 9 8 0 15 -4 15
-9z m155 -248 c3 -5 -1 -10 -10 -10 -9 0 -13 5 -10 10 3 6 8 10 10 10 2 0 7
-4 10 -10z m175 -1 c0 -4 -9 -7 -19 -6 -11 0 -18 4 -16 7 6 9 35 8 35 -1z
m990 1 c0 -5 -8 -10 -17 -10 -15 0 -16 2 -3 10 19 12 20 12 20 0z m34 2 c3 -5
-1 -9 -9 -9 -8 0 -12 4 -9 9 3 4 7 8 9 8 2 0 6 -4 9 -8z m146 0 c0 -5 -7 -9
-15 -9 -8 0 -12 4 -9 9 3 4 9 8 15 8 5 0 9 -4 9 -8z m-1405 -22 c3 -5 2 -10
-4 -10 -5 0 -13 5 -16 10 -3 6 -2 10 4 10 5 0 13 -4 16 -10z m285 6 c0 -3 -4
-8 -10 -11 -5 -3 -10 -1 -10 4 0 6 5 11 10 11 6 0 10 -2 10 -4z m895 -6 c-3
-5 -11 -10 -16 -10 -6 0 -7 5 -4 10 3 6 11 10 16 10 6 0 7 -4 4 -10z m-1210
-10 c3 -5 1 -10 -4 -10 -6 0 -11 5 -11 10 0 6 2 10 4 10 3 0 8 -4 11 -10z
m1170 0 c3 -5 1 -10 -4 -10 -6 0 -11 5 -11 10 0 6 2 10 4 10 3 0 8 -4 11 -10z
m379 -26 c3 -8 2 -12 -4 -9 -6 3 -10 10 -10 16 0 14 7 11 14 -7z m-1604 -14
c-8 -5 -19 -10 -25 -10 -5 0 -3 5 5 10 8 5 20 10 25 10 6 0 3 -5 -5 -10z
m1168 -4 c-7 -8 -15 -12 -17 -11 -5 6 10 25 20 25 5 0 4 -6 -3 -14z m-698 -31
c0 -5 -5 -3 -10 5 -5 8 -10 20 -10 25 0 6 5 3 10 -5 5 -8 10 -19 10 -25z m660
-4 c-10 -20 -30 -37 -30 -27 0 6 33 46 38 46 1 0 -2 -9 -8 -19z m-1180 -16
c-7 -9 -15 -13 -19 -10 -3 3 1 10 9 15 21 14 24 12 10 -5z m560 0 c0 -12 -19
-12 -23 0 -4 9 -1 12 9 8 7 -3 14 -7 14 -8z m1178 -20 c-3 -3 -9 2 -12 12 -6
14 -5 15 5 6 7 -7 10 -15 7 -18z m-1788 -52 c-11 -17 -11 -17 -6 0 3 10 6 24
7 30 0 9 2 9 5 0 3 -7 0 -20 -6 -30z m1170 -23 c-6 -12 -14 -20 -17 -17 -2 3
1 14 8 26 17 26 24 19 9 -9z m-523 -12 c-3 -8 -6 -5 -6 6 -1 11 2 17 5 13 3
-3 4 -12 1 -19z m1185 -34 c-8 -14 -9 -13 -9 10 0 18 3 24 9 18 7 -7 7 -16 0
-28z m-1847 17 c3 -5 1 -12 -5 -16 -5 -3 -10 1 -10 9 0 18 6 21 15 7z m681
-55 c0 -14 -4 -22 -8 -20 -4 3 -8 14 -8 25 0 10 4 19 8 19 4 0 8 -11 8 -24z
m486 -31 c2 -27 -1 -45 -7 -45 -6 0 -11 20 -10 45 0 58 12 58 17 0z m-482 -15
c0 -5 -5 -10 -11 -10 -5 0 -7 5 -4 10 3 6 8 10 11 10 2 0 4 -4 4 -10z m-5 -29
c3 -5 1 -12 -5 -16 -5 -3 -10 1 -10 9 0 18 6 21 15 7z m-685 -36 c0 -8 -2 -15
-4 -15 -2 0 -6 7 -10 15 -3 8 -1 15 4 15 6 0 10 -7 10 -15z m1857 -10 c0 -8
-4 -15 -9 -15 -10 0 -11 14 -1 23 9 10 10 9 10 -8z m-1190 -27 c-3 -8 -6 -5
-6 6 -1 11 2 17 5 13 3 -3 4 -12 1 -19z m523 1 c0 -5 -4 -9 -8 -9 -5 0 -9 7
-9 15 0 8 4 12 9 9 4 -3 8 -9 8 -15z m-533 -44 c0 -8 -4 -15 -9 -15 -10 0 -11
14 -1 23 9 10 10 9 10 -8z m1193 11 c0 -2 -7 -6 -15 -10 -8 -3 -15 -1 -15 4 0
6 7 10 15 10 8 0 15 -2 15 -4z m-20 -30 c0 -3 -4 -8 -10 -11 -5 -3 -10 -1 -10
4 0 6 5 11 10 11 6 0 10 -2 10 -4z m-1777 -20 c4 -10 1 -13 -9 -9 -7 3 -14 9
-14 14 0 14 17 10 23 -5z m577 -10 c0 -2 -7 -9 -15 -16 -13 -11 -14 -10 -9 4
5 14 24 23 24 12z m617 -28 c-3 -8 -6 -5 -6 6 -1 11 2 17 5 13 3 -3 4 -12 1
-19z m524 -19 c-31 -30 -41 -35 -41 -20 0 5 9 12 19 16 11 3 23 15 26 26 4 10
11 17 16 13 5 -3 -4 -19 -20 -35z m-481 -20 c0 -5 5 -7 10 -4 6 3 10 1 10 -4
0 -16 -16 -13 -30 4 -9 10 -9 15 -1 15 6 0 11 -5 11 -11z m-735 -9 c-3 -5 -12
-10 -18 -10 -7 0 -6 4 3 10 19 12 23 12 15 0z m-405 -4 c0 -3 -4 -8 -10 -11
-5 -3 -10 -1 -10 4 0 6 5 11 10 11 6 0 10 -2 10 -4z m1554 -11 c-4 -8 -11 -15
-16 -15 -6 0 -5 6 2 15 7 8 14 15 16 15 2 0 1 -7 -2 -15z m-359 -5 c3 -5 1
-10 -4 -10 -6 0 -11 5 -11 10 0 6 2 10 4 10 3 0 8 -4 11 -10z m-845 -14 c0
-11 -19 -15 -25 -6 -3 5 1 10 9 10 9 0 16 -2 16 -4z m1170 0 c0 -3 -4 -8 -10
-11 -5 -3 -10 -1 -10 4 0 6 5 11 10 11 6 0 10 -2 10 -4z m-1420 -16 c0 -5 -8
-10 -17 -10 -15 0 -16 2 -3 10 19 12 20 12 20 0z m1183 -7 c-7 -2 -19 -2 -25
0 -7 3 -2 5 12 5 14 0 19 -2 13 -5z m-1093 -13 c0 -5 -4 -10 -10 -10 -5 0 -10
5 -10 10 0 6 5 10 10 10 6 0 10 -4 10 -10z m40 2 c0 -5 -7 -9 -15 -9 -8 0 -15
4 -15 9 0 4 7 8 15 8 8 0 15 -4 15 -8z m1166 0 c-11 -10 -56 -13 -56 -4 0 5
14 9 31 10 17 0 28 -2 25 -6z"/>
</g>
</svg>
