<?xml version="1.0" standalone="no"?>
<!DOCTYPE svg PUBLIC "-//W3C//DTD SVG 20010904//EN"
 "http://www.w3.org/TR/2001/REC-SVG-20010904/DTD/svg10.dtd">
<svg version="1.0" xmlns="http://www.w3.org/2000/svg"
 width="900.000000pt" height="900.000000pt" viewBox="0 0 900.000000 900.000000"
 preserveAspectRatio="xMidYMid meet">
<metadata>
Created by potrace 1.11, written by Peter Selinger 2001-2013
</metadata>
<g transform="translate(0.000000,900.000000) scale(0.100000,-0.100000)"
fill="#000000" stroke="none">
<path d="M950 8073 c-142 -24 -298 -119 -385 -235 -91 -121 -125 -221 -125
-369 l0 -99 530 0 530 0 0 -3047 c0 -3382 -5 -3104 67 -3252 26 -52 59 -96
108 -146 79 -80 145 -121 260 -162 l80 -28 2990 0 c2798 0 2994 1 3052 17 210
58 385 224 443 418 26 87 39 270 19 270 -8 1 -247 2 -531 3 l-518 2 -3 3055
c-2 2455 -5 3065 -16 3105 -7 28 -31 88 -53 134 -70 141 -194 249 -364 314
l-59 22 -3000 1 c-1650 1 -3011 -1 -3025 -3z m249 -212 c72 -22 149 -69 190
-116 37 -43 78 -111 86 -147 l7 -28 -417 0 -416 0 7 23 c36 116 147 223 279
269 68 24 187 23 264 -1z m5769 1 c114 -36 198 -108 258 -222 l29 -55 3 -3072
2 -3072 -2337 -1 c-1286 0 -2343 0 -2349 0 -7 0 -13 -36 -16 -100 -4 -86 -9
-108 -37 -165 -83 -168 -276 -269 -457 -238 -144 25 -263 113 -326 240 l-33
68 -5 3170 -5 3170 -23 65 c-26 73 -61 137 -104 193 l-30 37 2685 0 c2584 0
2687 -1 2745 -18z m1337 -6623 c4 -6 -7 -39 -24 -74 -54 -110 -170 -197 -299
-224 -61 -13 -5372 -16 -5372 -3 0 4 16 30 36 57 40 55 78 135 95 198 6 23 16
45 23 49 19 13 5534 10 5541 -3z"/>
<path d="M3047 7568 c-26 -19 -29 -56 -7 -78 16 -16 34 -20 83 -20 60 0 145
-19 176 -39 12 -8 62 -162 156 -481 18 -63 97 -326 175 -584 77 -258 139 -475
136 -483 -3 -7 -51 -86 -107 -175 -120 -192 -130 -224 -81 -279 l30 -34 878
-3 c796 -2 880 -4 896 -19 10 -9 18 -26 18 -39 0 -47 81 -58 95 -13 17 53 -19
125 -78 156 -29 16 -102 17 -889 18 -471 0 -859 3 -863 7 -7 6 179 313 196
323 9 6 239 18 1244 65 349 17 361 18 396 47 44 37 57 69 83 205 14 68 48 242
76 388 28 146 58 297 66 337 26 135 14 190 -52 234 -39 25 -73 28 -839 69 -99
5 -209 12 -245 15 -36 3 -184 12 -330 20 -146 8 -380 22 -520 30 -140 8 -258
15 -261 15 -4 0 -19 46 -35 102 -43 153 -91 195 -248 217 -100 14 -128 14
-149 -1z"/>
<path d="M3552 5233 c-45 -22 -74 -67 -79 -122 -11 -127 130 -204 233 -126 42
32 54 60 54 125 0 103 -113 170 -208 123z"/>
<path d="M5162 5234 c-72 -37 -102 -134 -64 -204 73 -133 277 -81 277 70 0
107 -119 182 -213 134z"/>
<path d="M2633 4382 l-343 -2 0 -360 0 -360 360 0 360 0 0 359 c0 334 -1 359
-17 362 -10 2 -172 3 -360 1z m184 -359 l-6 -158 -160 -3 -161 -2 0 160 0 160
166 0 166 0 -5 -157z"/>
<path d="M3625 4151 c-109 -67 -105 -209 7 -267 23 -12 251 -14 1475 -14 1427
0 1448 0 1481 20 96 59 96 201 0 260 -33 20 -54 20 -1483 20 -1394 0 -1451 -1
-1480 -19z"/>
<path d="M2433 3452 l-143 -3 0 -359 0 -360 360 0 360 0 0 360 0 360 -202 1
c-112 0 -210 1 -218 2 -8 1 -79 1 -157 -1z m257 -201 l125 -1 -1 -157 -1 -158
-161 -3 -162 -2 0 159 c0 172 0 173 55 165 11 -1 76 -3 145 -3z"/>
<path d="M3625 3221 c-42 -26 -61 -50 -73 -94 -17 -63 12 -131 71 -167 31 -20
62 -20 1482 -20 1429 0 1450 0 1483 20 96 59 96 201 0 260 -33 20 -54 20
-1483 20 -1394 0 -1451 -1 -1480 -19z"/>
<path d="M2294 2521 c-2 -2 -4 -166 -4 -363 l0 -358 360 0 360 0 0 360 0 360
-197 0 c-109 0 -269 2 -356 3 -87 1 -161 0 -163 -2z m500 -195 c20 -5 21 -12
24 -166 l3 -160 -165 0 -166 0 0 159 c0 144 2 160 18 163 33 6 265 10 286 4z"/>
<path d="M3625 2291 c-42 -25 -64 -53 -75 -92 -12 -41 3 -105 33 -137 51 -55
-39 -52 1524 -52 l1448 0 38 25 c46 32 67 71 67 127 0 52 -28 101 -72 128 -33
20 -54 20 -1483 20 -1394 0 -1451 -1 -1480 -19z"/>
</g>
</svg>
